Harry Potter And The Sorcerer's Stone
------------------------------------------
Rescued from the outrageous neglect of his aunt and uncle, a young boy with a great destiny proves his worth while attending Hogwarts School of Witchcraft and Wizardry.
------------------------------------------
MediaInfo
General
Complete name                            : Harry.Potter.And.The.Sorcerers.Stone.BrRip.x264.AAC-YaGReoR.mp4
Format                                   : MPEG-4
Format profile                           : Base Media
Codec ID                                 : isom
File size                                : 1.58 GiB
Duration                                 : 2h 32mn
Overall bit rate                         : 1 482 Kbps
Movie name                               : Harry.Potter.And.The.Sorcerer.Stone
Genre                                    : Fantasy
Recorded date                            : 2001
Cover                                    : Yes
Comment                                  : Creado el mar oct 11 10:40:09 COT 2011 por YaGReoR

Video
ID                                       : 1
Format                                   : AVC
Format/Info                              : Advanced Video Codec
Format profile                           : High@L3.0
Codec ID                                 : avc1
Codec ID/Info                            : Advanced Video Coding
Duration                                 : 2h 32mn
Bit rate                                 : 1 298 Kbps
Maximum bit rate                         : 6 270 Kbps
Width                                    : 736 pixels
Height                                   : 304 pixels
Frame rate mode                          : Constant
Frame rate                               : 23.976 fps
Stream size                              : 1.38 GiB (88%)
Writing library                          : x264 core 106 Ubuntu_2:0.106.1741-3

Audio
ID                                       : 2
Format                                   : AAC
Format/Info                              : Advanced Audio Codec
Format profile                           : LC
Codec ID                                 : 40
Duration                                 : 2h 32mn
Bit rate mode                            : Variable
Bit rate                                 : 181 Kbps
Maximum bit rate                         : 289 Kbps
Channel(s)                               : 2 channels
Sampling rate                            : 48.0 KHz
Stream size                              : 197 MiB (12%)
Title                                    : LC-AAC Stereo